/* XPM */
static char *atk0[] = {
/* columns rows colors chars-per-pixel */
"64 64 25 1 ",
"  c magenta",
". c #5787E7",
"X c #6B97EB",
"o c #97B7EF",
"O c #4377E7",
"+ c #3B6BCB",
"@ c #335FB3",
"# c #132B4B",
"$ c #23437F",
"% c #AF4F00",
"& c #FF7F23",
"* c #FFDBBB",
"= c #FFFFFE",
"- c #5F1700",
"; c #3B003B",
": c #2B5397",
"> c #000008",
", c #570B57",
"< c #631763",
"1 c #7B2B7F",
"2 c #97479B",
"3 c #6F1F73",
"4 c #FFAF6F",
"5 c #8B378F",
"6 c #A357AB",
/* pixels */
"                                                                ",
"                                                                ",
"                                                                ",
"                               .XX.                             ",
"                            ...XooX...                          ",
"                            .OO.XX.OO.                          ",
"                           .+OOO..OOO+.                         ",
"                           .+@@@++@@@+.                         ",
"                      OO+@@OO###@@###OO@@+OO                    ",
"                     O+++@$$O$##@@##$O$$@+++O                   ",
"                    O++@$$$$$$$####$$$$$$$@++O                  ",
"                   @@@@$$$$$$$$$$$$$$$$$$$$@@@@                 ",
"                   @@@$$$$$@@@@@@@@@@@@$$$$$@@@                 ",
"                  $@$$$@++++++@@@@@@++++++@$$$@$                ",
"                 ###$$@++++++++OOOO++++++++@$$###               ",
"                $##$$@++++++%&&&%%&&&%++++++@$$##$              ",
"                $##$$+++**&=&*=*%%*=*&=&**+++$$##$              ",
"              $$$$##@++-*=*%-%%----%%-%*=*-++@##$$$$            ",
"             $$$$$##++;;%==;;;;;;;;;;;;==%;;++##$$$$$           ",
"          $$$@:$$#$#++;;-%%;;;;;;;;;;;;%%-;;++#$#$$:@$$$        ",
"        $@++++@$$$$++;;;;;;;;;;;;;;;;;;;;;;;;++$$$$@++++@$      ",
"        ++..++@$$$$++;;;;;;;;>;;;;;;>;;;;;;;;++$$$$@++..++      ",
"       $@....+@:$$@@+;;;;>>>>;;,;;,;;>>>>;;;;+@@$$:@+....@$     ",
"       @++.o.+@:$$@+O;;;;>>,,,;;;;;;,,,>>;;;;O+@$$:@+.o.++@     ",
"       @+...++@$$@@+;;;;>;,,;>>;;;;>>;,,;>;;;;+@@$$@++...+@     ",
"       $+++++@:$$@@+;;;>;,,>>>>;;;;>>>>,,;>;;;+@@$$:@+++++$     ",
"      $$@$@@@:$#$@O;;;>>;,>>>>;,,,,;>>>>,;>>;;;O@$#$:@@@$@$$    ",
"     $@@@@$$$$##$@O;;;>;;>>>>>;,,,,;>>>>>;;>;;;O@$##$$$$@@@@$   ",
"     $@++.@@####$@O;;;>,,>>>>>>;;;;>>>>>>,,>;;;O@$####@@.++@$   ",
"     $++.o.@$###$$@;;;,,>>>>>>>>>>>>>>>>>>,,;;;@$$###$@.o.++$   ",
"     $++..@:$###$$@;;;,,;;>><<<<<<<<<<>>;;,,;;;@$$###$:@..++$   ",
"    $:+@@@@:$###$$@;;;;;;;<<<11111111<<<;;;;;;;@$$###$:@@@@+:$  ",
"    $@@@@@:$$####$@;;;;;;<<112222222211<<;;;;;;@$####$$:@@@@@$  ",
"    $@@@$$$## ###$@@;;;;<1122222222222211<;;;;@@$### ##$$$@@@$  ",
"    $$@+@:$$$ $##$$@@;;;<1222221<<1222221<;;;@@$$##$ $$$:@+@$$  ",
"     $@+@@$$$  ##$$$@@3;;<11211<<<<11211<;;3@@$$$##  $$$@@+@$   ",
"     $@++@:$$  ###$$$@@4&**&&&&%%%%&&&&**&4@@$$$###  $$:@++@$   ",
"      :@++@$#   ##$$$@@33%&%**&&%%&&**%&%33@@$$$##   #$@++@:    ",
"       :++@:$#   ##$$@@@3355&&&%66%&&&5533@@@$$##   #$:@++:     ",
"       $+++@:$   #####@@@3555666666665553@@@#####   $:@+++$     ",
"        @++@@$   ##$$$#@@@@@@OOOOOOOO@@@@@@#$$$##   $@@++@      ",
"       $@++++@   ##$$$$$$@@OOOOOOOOOOOO@@$$$$$$##   @++++@$     ",
"       @@++++@@@ #$@+@+$$$$$@@@@@@@@@@$$$$$+@+@$# @@@++++@@     ",
"       @+++++$$@  $@@$@$$$$$$$$$$$$$$$$$$$$@$@@$  @$$+++++@     ",
"       @@++++:::  $$$$$####$$$$$$$$$$$$####$$$$$  :::++++@@     ",
"       @@$@@@@$   $$$@@@$$######  ######$$@@@$$$   $@@@@$@@     ",
"        @@@@@@$   $@$OO@$######    ######$@OO$@$   $@@@@@@      ",
"        $$$@@:$$  $@@OO$$#$####    ####$#$$OO@@$  $$:@@$$$      ",
"         $$:@::$  $@OO@$$$####      ####$$$@OO@$  $::@:$$       ",
"          ::  ::  $@@@@$$####        ####$$@@@@$  ::  ::        ",
"                  #$@@@$$###          ###$$@@@$#                ",
"                   $$$$$###            ###$$$$$                 ",
"                   ###$$####          ####$$###                 ",
"                  @@$########        ########$@@                ",
"                  OO$$$$$####        ####$$$$$OO                ",
"                 @@O$$@$$$##          ##$$$@$$O@@               ",
"                @@@$$@@$$@##          ##@$$@@$$@@@              ",
"               @OO$$@@@$$@$$$        $$$@$$@@@$$OO@             ",
"               @O@$#@@$$$@@$$        $$@@$$$@@#$@O@             ",
"               $$$@@@$$$$@O@@$      $@@O@$$$$@@@$$$             ",
"                ##@OO$##@OO@@$      $@@OO@##$OO@##              ",
"                  @OO###@OO$$        $$OO@###OO@                ",
"                   OO##@@O$$          $$O@@##OO                 ",
"                                                                "
};
