/* XPM */
static char *atk1[] = {
/* columns rows colors chars-per-pixel */
"64 64 20 1 ",
"  c magenta",
". c #23437F",
"X c #335FB3",
"o c #3B6BCB",
"O c #132B4B",
"+ c #5787E7",
"@ c #6B97EB",
"# c #97B7EF",
"$ c #2B5397",
"% c #4377E7",
"& c #3B003B",
"* c #AF4F00",
"= c #FF7F23",
"- c #5F1700",
"; c #FFAF6F",
": c #FFDBBB",
"> c #FFFFFE",
", c #6F1F73",
"< c #8B378F",
"1 c #A357AB",
/* pixels */
"                                                                ",
"                                                                ",
"                                                                ",
"                                                                ",
"                                                                ",
"                                                                ",
"                                                                ",
"                                                                ",
"                            ..X....X..                          ",
"                           .ooo....ooo.                         ",
"                        ..XooooX..XooooX..                      ",
"                       .XXoooooXXXXoooooXX.                     ",
"                     ..XXooooXXXXXXXXooooXX..                   ",
"                    ..XXoooooXXX..XXXoooooXX..                  ",
"                 OOO..XXooooooXX..XXooooooXX..OOO               ",
"                .OO...XXooooooXX..XXooooooXX...OO.              ",
"                .OO...XXoooooX......XoooooXX...OO.              ",
"              ....OO..XXXooo...+@@+...oooXXX..OO....            ",
"             .....OO...Xoo..+++@##@+++..ooX...OO.....           ",
"          ...X$..O.OO..XXX..+%%+@@+%%+..XXX..OO.O..$X...        ",
"        .XooooX......O.XX..+o%%%++%%%o+..XX.O......XooooX.      ",
"        oo++ooX.........X..+oXXXooXXXo+..X.........Xoo++oo      ",
"       .X++++oX$...XXX.....%%OOOXXOOO%%.....XXX...$Xo++++X.     ",
"       Xoo+#+oX$..XX%oo.....%.OOXXOO.%.....oo%XX..$Xo+#+ooX     ",
"       Xo+++ooX..XX%&&o........OOOO........o&&%XX..Xoo+++oX     ",
"       .oooooX$..XX&&&oXXXX............XXXXo&&&XX..$Xooooo.     ",
"      ..X.XXX$.O.X%&&&&oooXXXXXXXXXXXXXXooo&&&&%X.O.$XXX.X..    ",
"     .XXXX....OO.X%&&&**=*ooooXXXXXXoooo*=**&&&%X.OO....XXXX.   ",
"     .Xoo+XXOOOO.X%&&*-;::=*ooo%%%%ooo*=::;-*&&%X.OOOOXX+ooX.   ",
"     .oo+#+X.OOO..X&&*--:>::*===**===*::>:--*&&X..OOO.X+#+oo.   ",
"     .oo++X$.OOO..X&&&*=*>>>=:>:**:>:=>>>*=*&&&X..OOO.$X++oo.   ",
"    .$oXXXX$.OOO..XX&,,;-***-**----**-***-;,,&XX..OOO.$XXXXo$.  ",
"    .XXXXX$..OOOO..XX,,;=::====****====::=;,,XX..OOOO..$XXXXX.  ",
"    .XXX...OO OOO...XX,,,*=*::==**==::*=*,,,XX...OOO OO...XXX.  ",
"    ..XoX$... .OOO...XX,,,<<===*11*===<<,,,XX...OOO. ...$XoX..  ",
"     .XoXX...  OOO....XX,,<<<11111111<<<,,XX....OOO  ...XXoX.   ",
"     .XooX$..  OOOO....XXXXXX%%####%%XXXXXX....OOOO  ..$XooX.   ",
"      $XooX.O   OOO......XX%%%%%%%%%%%%XX......OOO   O.XooX$    ",
"       $ooX$.O   OOOOO......XXXXXXXXXX......OOOOO   O.$Xoo$     ",
"       .oooX$.   OOOOOO....................OOOOOO   .$Xooo.     ",
"        XooXX.   OO...OOOOO............OOOOO...OO   .XXooX      ",
"       .XooooX   OO......OOOOOOOOOOOOOOOO......OO   XooooX.     ",
"       XXooooXXX O.XoXoooX....OOOOOO....XoooXoX.O XXXooooXX     ",
"       Xooooo..X  .XX.XXXX..OOOOOOOOOO..XXXX.XX.  X..oooooX     ",
"       XXoooo$$$  ..........OOOOOOOOOO..........  $$$ooooXX     ",
"       XX.XXXX.   ...XXX..OOOOOO  OOOOOO..XXX...   .XXXX.XX     ",
"        XXXXXX.   .X.%%X.OOOOOO    OOOOOO.X%%.X.   .XXXXXX      ",
"        ...XX$..  .XX%%..O.OOOO    OOOO.O..%%XX.  ..$XX...      ",
"         ..$X$$.  .X%%X...OOOO      OOOO...X%%X.  .$$X$..       ",
"          $$  $$  .XXXX..OOOO        OOOO..XXXX.  $$  $$        ",
"                  O.XXX..OOO          OOO..XXX.O                ",
"                   .....OOO            OOO.....                 ",
"                   OOO..OOOO          OOOO..OOO                 ",
"                  XX.OOOOOOOO        OOOOOOOO.XX                ",
"                  %%.....OOOO        OOOO.....%%                ",
"                 XX%..X...OO          OO...X..%XX               ",
"                XXX..XX..XOO          OOX..XX..XXX              ",
"               X%%..XXX..X...        ...X..XXX..%%X             ",
"               X%X.OXX...XX..        ..XX...XXO.X%X             ",
"               ...XXX....X%XX.      .XX%X....XXX...             ",
"                OOX%%.OOX%%XX.      .XX%%XOO.%%XOO              ",
"                  X%%OOOX%%..        ..%%XOOO%%X                ",
"                   %%OOXX%..          ..%XXOO%%                 ",
"                                                                "
};
