/* XPM */
static char *_ec2d4d631f04b3887e7e100f49976a05tY9IAQTkXE2pDWF[] = {
/* columns rows colors chars-per-pixel */
"128 128 21 1 ",
"  c black",
". c #240000",
"X c #242400",
"o c gray14",
"O c #492424",
"+ c #494924",
"@ c #6D4924",
"# c #6D6D24",
"$ c #494949",
"% c #6D4949",
"& c #6D6D49",
"* c #6D6D6D",
"= c #926D49",
"- c #926D6D",
"; c #929249",
": c #92926D",
"> c #B6926D",
", c #B6B66D",
"< c #929292",
"1 c #B69292",
"2 c #B6B692",
/* pixels */
"+++$O$O$$ooo++$+OoOoo+Oo+$+O+ooo+ooXoo.Oo$++o$oo.XooOooXOo+%$&+%&&%+&%O+oXoOOooo+oooXooOO++OOOooo+$%+$OooOXo.XoXoOoooOooO+o+oOo$",
"%%$+*&*&&$&$&$&%%&&&$$&%*&%*&&&$&%$%$+$%**&&$+$$$$$%&&%&&%$$*&*&%&+$&*&%$$%$$$$*$%+%+$$$+%%%&%$%$$&**%&$&&&&&&+%$$%$&&*&$*%$%%*&",
"-++$+***$%&&$$&$$&&&%$%*%&**%&&&$%&*****&**&%&*&%&****&&&*&--&*-*%%%$&&--**-**&-*-&&*&**&::-*-&&&***-&-*-*-&***&&***&*&**&&**&&%",
"+$%++o&&&&%-&&&-%&-%&=&:&-&--&--&&::---&-&&==--:&-&-*-*:&:1::-:-$++$+$>>::::>:>-:::::-:::::::<::::--1::----:-:::::-::&&--&&----=",
"+++%+o%&&&%&&%&@%&&&&&%=&&&&&&&&*&-&%-&&=&&:&::&&-&--&:::-:=&&-@++%&O+%=::>1:>::==-::-:-:::-:---:-=-&=:=::::&=:::=&&::-:----:=&&",
"O+$%Oo%+%+@$$%%+++%%%&@&@&+%&%+&+&&&&&+&&+&&&&&&@&&@&&-&-=&&=&&&+$%&$$:-:=:=::=:===:===::---:&&=&%&&&&&=&---::=-:&=&&&-:&-%&&&&&",
"++$+$X++%@&&&%+++%%&&+&&@++++O+%%+%&-%&@@@+&%&-&&-%&-&--&&&=&&&+O%$$$$@=:==::>;:==-&=&==:-&&=&=-&&=:-:&=&-&&::-:--:-&:&&-&@%&%@&",
"OOOooo+%%%@&@&+O+++&++%@&&&&+%+%&%%&&%%&&&&%@&&&&%%&-=&&-&&&-&%&+$$+O$&=:::=::::>>>&=:::=:==-==&&&&::&:&&=--&:&=--&-==&&&&--&@=&",
"oo+++o%$&%&%%%+@%OO+++%+&@&&$%&%+%%%%%&%&&&@@&-&&&=%&&---&&&-&&&$+OOO%-:===>::::::::-=:=::-&&&==-=--::&:&&--&&:-:--&&&=-&&=&&==%",
"+OOo$X++&&%%+++%%++&%&+&&&%+++&&&@%%&%@&&%&&@&&&&-&=&&=&&&&@&&&&OO$++$%&::::::>:>=:=:--::-===&&&::-=:&=:&&&&=#=&&-==:&&=&&@&&-&%",
"OOXooo$+%&&+%+++%++%$@%+@+&++%+&@&&%&&+&%&&&&-@&@@@&&&-&&=&-=@&&+OO+o$=&>==>-:=::>-:-:=>::==-&:-::-::::=:::::-=&=-&@&=&=&%@@&&&&",
"OO+oooO+&$$&$%%+$%%&+%++O+%++%&&%&+-%%&&+@%@%%&@%%&&&&-=&--@===&O$++o+&:::-::::>1:-::::==-&:-=-=:-=:&=&--:-&::===-&&&@%=&%&&+&&%",
"+$ooOo$$$O$++O+++$O%+%++$%+%+$&%+++$O$%+%+++%%$%++&$+$+&$&%+&&&&+%%%%%=&-=&&-&-&&-=&-&-&%&&&&%%&%-&%&&&&&&%&&%&%$&&&%$&&&%%%&&&&",
"+OO$$o X           Xo.X. . .o.X  .X.XX X  o   X.X X  X.X.X . oXoO$%&%%oXXoXXooXoooXXOoOXOo.X.XXXoX.ooO.XoXoXXX X.XXXo ...o ooooo",
" $$+$           . .X X.. X..                               .  XXX+%&+  X.  .   . X      XX ..    .   .. .                       ",
"oX%%OoX.X      . .XoOOXXo..X XX.       XX.                  XXo+OO%+OOXo..  . X.  .  oXXXXOo.      X Xo    X .X .  .  .   .X Xoo",
"O$$%%+$+OoX.oXoOO$$$+O$o++++oO+o+ooo+o$$OooXooooo   o oooXooO%$++%&++$O$+OoXoX++++OXooo$$$+$+XXoooo+oo+OoooXoOooOo+oooOOooo+O+o$",
"&&%&*&$&%&*$&$$&*&&&*$%&$%$$&%$%++o%$%%$&&$&$+$$&%+%$$$%+%$%$&&&-&%*&$*$&&&%%$$&%%$%&%&&%&*&&$%&o+o&&&*%&$$$$&$$&$$&%$$+%%&&&$%$",
"%**-&&*-&&&*&&*&**&---****%*-&*O$%Oo$&**%$$$*$$%%$$$$%%&&&$%$&%*&*&-*&*&***&%********&**-***-&-++ooO&$%&*&%%*$&%$&*$$$$$&%$%$&&%",
"&&:&=-::<::*-::::&::--::=-:-=:O$%%++O&%&&&-*&&***&%&*:&---&---&&*:**--::&::---&:::::-----::<:-+O+o++o--&&*:*:-:*&=-%&&&&&-=&::-&",
"&==&==&==--::::&=&&&=&=-:&=&&&++%$$+o$+%&+&*+&%@&&$*&@%%&%+&&@&---:&-&&-&=&:&&&-&-::&&---:-::&O+o+$+o$&@&&&--&=-&@@&+&@&&&-&&===",
"&@&&--&=&&%&#=&&---%&&&=&&-=&+++$+++oO+%++&&$+&%%++&+%%+&%&@&&%&%&&%&-&-&&&&%&&-=&&&&&---&:-=&O+OoOoX%%%%+&&&*&&+&&+%&&&%&&@&@&&",
"&%&&&@&&@-@@&@&=-%=&-&=&&&&&&%$O+$%$O+++$++&&%%&%&+%&+&&$%$+&$&%&&&&&&&-&%&&&@&&&&:&&:=&-&&::&O+O+$+OO%+$+&&&%%&*+@@++@&+&%&=*--",
"&&&@%&&@@&@&+&&&-&-&&-&&&=%&=%++++$+oO%+++&&&&&%%&&%+&&%%%+%&&&*&%%&*-%-&&&&%&&&&-&&&--=&=--=&O$$OO+o++%&++&%%&%&%+%%%&&&&+&&-&&",
"&-&+@@@%#+&@&&&&&=&&&&-&&&&&&&O+++O$oO%+&++%&&&&$%&%%&%&$$&&&*-&*&&%&&&-%&-&%&&--&&&:&&=-&==:&o+++++oO&&@++%&&+%+%&%&+%@%+&=&%&%",
"&&&&&@&&@@&&&&&+%&&=:&%@%&&&%&+$+Oo$o+++++++&%&+&$&$+&&&%&$%&&%%&&&&&-&-%&%&&%&-:=&#&=&&&&&--&++++$Oo+&@+++&++&++%@&+@@+%&&=&-&&",
"@&+&&&&@&%@+@&@@%%-&&&&&&%&&&&++O+++o+%+$+%$$++%$&&$&%&%&%&%%*&%&%&&&&&%&&&&%%&&-&&&&%&&&-&&-&+O$+++X+&%+%&&+%%&&&+&++&&@%&&&&%&",
"&%&&&&&+%&@@++%+-&&&=%+&@&&&&%O+$+++oO++%%$$%+%&+&&$%&&&&&&&*&%&&&&%&-%@&&&%%--&-&@&@%-%&&@&-&Oo$$$$o+&&%+&&&&&&&@&+&+%&%&&&&&%&",
"&&%%&$%%&+$%$%+%%$&&&$%&+++%+&OoO$+oO+OOO+O+%$++O+%%O+$+$+%$+%+%+&+&&&&$%%&&%+&+%&%++%+%&&%&&%$o+ooOO%$+%+$%&+%$$%+&%%+$$&$++&$&",
" oo.Xo o  XX.X.  ooo.o Xo.   XOOO+$ooX.X      X   X    X..X X      XXoX.o oo X     .     XXXXooooX++XX. . XXXX..   .Xoo .X.  XXo",
"    .  .                       ++++$    X.  X .          .     .   X ..  X.                   .OoXOo X.. X.X     .          .XX ",
"XX  X  .X  XX oX.X .. .X    .. .ooOX . XXX.Ooo.X.X     XoXoX .. XX. XooOOoOoX              .X.  ooO    XXXXOXoOXo.ooXX  X XXXoOo",
"+OO$O+ooOO$+Oo+++o+Ooo+OO+oO+oOooOXo++$+$+++++$OOooo o+++$+++++O+OOOOOo+$$+O++o+ooooXooXoXooo$+o+oooooOO$O%&%%+$+$%+$+OOO+ooo++O",
"$*&%$+oo&%$%*%&$&*$%$*&$&&**&&%$&&$&&&*&$&$%&*&&&$$++$%%**$$%$$$**&%&OOo&%&$&*$$&%%&%%+$$$$&*&&&&$$&&$&&&&&&-*&**%%%&$$$%$*&*&*&",
"-*&&oooO$&$%%***%%**&*%%****&*&$&%&*&*&%*&**&&*&&**&&&***::-*:&--*--$+oo+*$$&*&*&**%&*%*&*%$%%&%&&%*%%%%&&&*&&*&&&*&**:*&--*--&*",
"==:Oo+o++o*&*&&&&::*:-*---:-&::&:*--::-&::-:-:-::<:---:-:222::--1::+$+++++:*--&&&:&-:-&&&--*&::&-:::*:=&::&&=:&&::=::>=1=211>-::",
":=-O+ooO+++&&&&+%%-%&--&&&&&&&&&&--:&&&&&=::&::::::==:-::1:::=-::--++$ooOo$%%&%&*&%-*&&&&&&&::::-&=&:=@@:-&-:&&===&&:=:-:>:;:::=",
"@&&%oo++oo+&&++++%&&%&&%&*%%&&%&&&*&&%+&@&&&-:&&:&&&-&=&=:;:=-=&-&&$OO+OoO$%+%&%+&&&&&&&&&&%&-&&&-&&&&@+&%&@=@&=#-&===::=>:=:=&=",
"&&&Ooooo$o%$@%+&&$&&%%&+&&&&&%@%=&&&-%&&&&&&&&@&::&--#&=--::==--&&&++$o+oo$+&&&+&%$%&*&&&&+=&=&&&&=&&@&&&%&%@&&=&&==&-:>;:>&;;&=",
";&@$o++o$o+&+$%$&%&&&&+%%&+@&-@@&%%&%&@&&+@&%&&==:=&&@:&-=:---&=&:&$O+o+Oo%+%%%+$%$%&&&%-&&&&&-*&&&@&&&&@@@&-&&&&-=:::::=-==::=&",
"-;-$+Xoo+X++&%$&%$%&%&&%&%&&&&&&@@&&&=@&-@@&&@&&&&#=&==&=::::&=-==&$o$+o+++@+&%&$+&%%&&*&&+&&&-&&&@&&#&%&&=&&-@@&==-:::::::::&::",
"&=%OoOoO+o+++$$&&&&%&*&&&@@@&&+&+&&@@+@&&++&@@=&&-&&:=&-==:&==&&&&&$OO$+oo%&+%&%+%&+&&&%$&@@&&&-&&=@&&&=&&=&&-==:&=::&::=--=&=;&",
"=#&+XoOooO+&++++&+&&+&%@&&+@@-&@@@&&&@@&&++&@@@@&&&-=&&:-:=::=;=&:&OO+ooo+%+&%%&+%&&&&&&%&&&@@--:&&&@@&=&=&&&&-&=-&&-&=:=-:@=&&:",
":@&+o.oooo+%$%+&%+&++**++&&@&&&&&&+&&%&&&++&&&%@&:&==&&-:==:&&===&&++oo+oo%%%%$%&$&%&&-&+&&+&@-&&%&@&%-:-=&&=&:&@%&&&&&==:=&=&=&",
"%&+OOOoOOX+$+$$$+$%%%&+&&+%%%&+$%%++&&&&$++$&&&&%+&&&%-&&&&-%%&&---$oooOoo$+OO$++$%+$+%%$$&&+%&&%&%$+++%%&&&*&&+++&&--&%&-%&&%&%",
"XoX+OOO++o XXX X..X.X Xo..  X XX  XXo o .  .XXo.XoX.XoXoXXo.XXOOXXo+o+OO+o XXXX .o.XX  Xoo.oo  X X.X X .oXooooo.XoXXXooXoXXXXXXo",
"    oO+o$  XX..X.  .XXoooXXo.      X .    .     ...       .      . X+++oO  ... XX.   .  X    X .   .   XXX  .    X.Xo X  .    X.",
"o.XX +O+o oXoXXXXo.ooOOOXoO.X...XXX.o .. XX X X.X.o.o      X XXooOXX.ooo    ..XXoO+XXXXo X .XXooXXoo.X.o+OXXo   X.X+oXOX .XX.oX.",
"$+oOoXo+$+O+$+%%+%++O$%%%+%++OO$$O$OOO+oo+o++o+o+$$+$$oOoooOo++$o$+OOO+XO+oO+OO+++$++$$$oO+o+OOO$+++o$+$%&++ooooo+OO++OOoOooo+%$",
"%%%$%+%$%&*$%$&*&&&&%$$$%%**%%%$*&&OOo%*%&%$&%$%%&&&$&**$&$%&$*&&&&&&$%%+$&&$$%$&&$%&*%*&%$$&%$&%&&+$O%&%*%%%$$$&&&&*&&%%$$*$$&&",
"&&&&*$$$%&*&*%*&&*&%&**--&&&****--Ooo$+-:*-**-*-&**-::-:*-&&::*--:&*:----%-&&&*******&&*&&&%&&-**%+ooo$&*$%&&**$$**&&&**&*%*%**&",
"-&:&&&&&:&--:-&-::&-=-:-:=-::-:-=OO+oO$$:::>>22>>:::::1>::2>>2::>:>1:::>==:::1--1:-:&&--=&=::=-:&O+$OO++&&&%&-&&&:&--:::&&:&&&&*",
"&&&&&=&@%&=&&=--:=&%&%&&:&&:;::-@O$ooo++#>::12>:>=>:=::>:1:2=>::>>:=::;:=&-&=::1>==-:&::&&&&;=:-&+OoO+oO$+%%*-*&&-&-&&&&=&%@&&%%",
"&&&-&&&&&%%&&&&&&&&&&&&--&=&&&::@O+oXXo+&:>=::::>=::=====>::==;;=::=:&::&=#=&&=::=:&&=&-&@&&:&--&+++O$+++++++@&&&%@&&&&&+&&&+&&&",
"&&&-&&&&&&-+&&&&&&-&&&&&:&-&@&:&%++++O+%&;=>=>:>1>;>::=:;>-:&=&&=:::=:::==&&=&-:--:-&&&&&=:-&&=:&++OoO+o++&%++%&+@%+@&++%+$+&@&&",
"&&@&&&-%&-&&&%&&&&&&&-&&&@&:&&&&*+$++++$:;::;;:=:=====;=;:=:=&-&=&>>==:=:=-=&&:=:--=-@-&==&=&=&:-+O$oo+X+%&@&+*&%%@&*%&&&%&%@&&&",
"-@&@&@+&-=&&&-&%&@-=:-&&=&-:&=-&&OOoo$o$=>=>=;;=>==&-=;==;=====&=&::=:=:=::-=:-=:&:&=@=&&@&=&=#-&$+$+++o+%&@@@&&%%$+%&*%%&&&&+--",
"&&%&%++@&&&@=%-&&=-=&&&-&=&:-:&:&$ooo+$%#:=:>:;&:;=;=&=:=:>&=&#=&=======&=;=:=:--::-&-&:=@&&&&&&&O%&$$OO%%++&%%%$+&%&&-&&&%&&@&-",
"%%@&%+@&&@@%%&&@&-&=--@&&:::&==&&+o$ooo%&>:>=1=;::;=>:=:>=:=:==&=:;===:&;&=:=::-=::&:&&-&::==&=&&++&+++++%@++&%&%$%&*&&&&&%@&%@&",
"&&&&&+&++@&@--%%&&&&:&=-&=&&&:=&++$+OO+$&;=:=::=>:&:=:>>>:>::::::>::::>::::=-=::=:&&&@&-&--&&&&&&+%%%+$o+&$&$&%&%&$++%&&&&%++%+&",
"$%+%+++++%&$&%%&&%%%%&&%&&%&%&%%++Oo++O+@&&-&:&-=&&-&&:&&:&&--&&=--&&&&=-&&&&%%&&&-&%%%&%&&$&&&-&+$++++o$$%$%+%+%&%%$+%+%+%%++++",
" XX  .X X .o oo   X.oX.oX.X.XoXXXo+OoOO$oooXXXoXXoooXXXoXO.XXXOoOX.XXooOOoo.Xoo.Xooo.oXo..XX o.ooOO+O++OX X X o   XX  X X.X.    ",
".       .           . X . .X. .   +o+$O...            .  X.  .       X.oX  .     .  X.X.      .   ooO+$..        .  X         . ",
"oXX. X  ooX          XooOoooXX.XOOoO$OXXX.o    . . Xo.o....XX       XXoXOOXo.    XXoO+OO.o .  . . .ooo X.XoX.X X.XOoo.X X  . ...",
"++ooOooooO++OoXoXoooO+$+$$oo++$+%+%+&+$%+$+oooo+$oOoO++OO$O++Xo oXXoo+O+$$++oooXO$+%%%%$OOo+o+oOo+oOOOooOoo+o+++O++++o+o+o+oOo$+",
"*%%&$$&oo%$%%&$%%$&&&%%*&$&%&$&****&-&%%&*%*%&&&*&$&&*&%&%**&+%+++$$&$&o+%&$&&$%&&$%&*-*&$&$&$$&$&%$%$%$*&%&&$&&&&&&%%&&$&&%&$%$",
"**-*&&+o+$&$&&*$%$%&**&&*&$**-**&%*&*&%**%*%&*&*&-****-::--**&-&&-&*:*ooo$$$&$*&&*&&*&%&&$&%&$%%**%&&*%&**&*%&**-*&&--*&*&*--&*&",
"--:11+oo+++--&&&&&:-&&&&&-&&-&&:-::=&&:&&:::<:<::-:1:1:>:=-:11:::::::++Xo+X-&&&&&&&&-=&&:&:&&:&*-*-=-&-&--::&&--::&--:-:::---1=:",
"::::%$$O++O+&&&%&+&&@%&&%&&&&&&&*&%&@&===-=&&&&-&==&:;&=&&;-::&:;=&>&O+oOo+&&&&%@&+&%%%=&=@&&--&:&&-&-&-:&-&&&&&&&=::-&&:-:=::-:",
":-&--+$O$$o%&++%&%++@&@@%&%&%-&-&&&%&=&@-@@@&&@&:&&@%=&&&=-&-:===::-&$o.ooO$+%+%++%++$%&&*&%%&&&&&%&@&&&&--&&&&&@&=-&-&&-&=&=:::",
"&&&:&+o+++o&&+&&&&+@&+%&+&++&@@&&&&&&&&&&&&@&&@&@@@=&&&-&=&&-:&&&=#:&OooX+o&%%+&%&&%%&&&&%%%%%*&&&&%&&&&&%&&&&&:&&&:&&&=&&&:-:-&",
"-:-:&O$++++$%%&&&%%&%@++++%&&&&&&&&@@&&@&&=&&&%-&%=&@&&-&&&=&&-&=::=&$oo+o+$+@@$$++$%+@&%&%@&&&%%&&&&&&=%&&--&&&&&&&:-&@&&&:--&=",
"-&-=&+O$OOX%+%&%%&++@%@+%+&&&&&=&@+%%&@&=&==&&@&&@&@&&-@&=&&::&=:=&:&$$++oO+%&&%&&&+%@&&-&&&&%@&&&%&%&%&&-&&&-&-&&---&&&-&:--=&=",
"::-:&+OO$oo+%$%$&%&&&&%+%+@&&&&&&@&@@@@&&=@&@&@&=&==@&:&@=&#&&&::::=-++O$Oo++&$%&%%&+&+&&&&&%&%@$&%+%&%&*-&&&=&=&&&-&&-=&&&&-&&&",
":::-:$$++OO$&&&&+%&&&&@+++&@&@%&&@&&&@&&&&:&&&&-&@=@=@@@=&&#&&=:::---&$$O++&+%+&&++%&&&&%&&%+%&+%%&&&+@&&%%&&&&&&=&-&&+&&%&---:&",
"-::&*+Ooo+o+%&%$&&-&&&&&+%@++%%&&%@&&%&&&-&&&&---&&%&&&-=&:-&=&=&::-&$+++%+++&+$%&%@&++&&&&&%%&%&%&%&&%&&&%&--%-&%&&&@&%%%&-&-&&",
"&-&&&OoOooo++$$O$++%$&+%$+%&&+&+%&%%&&&+%&&%%%+&&&&&+&&&&&&=%&&-&&&&&$O%++o&+++$++$++%++$+&%&+$$&&+%+++++%%+$&&&&$&+&%%&&&&+$%%%",
" ..oo+oo+$o XX.XX X  .o  o  X o o X XX XXX X X...oooXo.oo.XXXoXOXXoXX%$++++.  . XX.   X .. X X. X XXX .X     ..oo ooXXX o oX o.X",
"    X Ooo+.  X     X..X .XXXXX   .X ..   .   .  X. .....X .X .  X.X.  $+++     .    .      .    .    .            X .. .    . X ",
" . Xo oOoXXooXXXX.Xoo...XXO+O+O+OOX+ooX.. ..X.X  XXX.oXXoXOoXXXXXXXXOXo++...XXXX       .X  XXX  X.oo.XoX  ..X.X.XXXX ..  X.ooo.o",
"o$o+O$Oo+$&%%%++++O+OoOO+&%&%&-%&&%++$%++$+$+OOooo+O+%+$&$+%%%++%%++$$$+$+$+oO$OooXOXoOoo+$+$o+ooXOOo+OoO$OO$O$+%$+OoooooO+++$+$",
"%$$$&%$$%&&&***&*&&&$%&%%**&&&-&&=&&&-&&$%%$*$&$&%&*&%&*%%&*%&&&**&**%*&**&%%&$$$*$&$$$$$&$%&$&%+O+&%*%&*%*&%&&%&%&$$%$$&*&*&*$%",
"--:*&*&&*--::-:&**-**&*:&-:&*&*$@&&+$&&$&*$**&*$&**%******&&&-&&*&*&*-:*-**&**:-&&*&*--***---&-o+oO$::-<<*:::-:-&-&*--:::*:*--**",
":222:-:1-:=::::::::::1:::1::::$%%&&+o&&&&*:*:*&:-*&:&*:::-:&::*:-:-:-::::::--::-===-::1:1:::::$ooOOO+>2221,12>>>::2121:2>1:21::>",
"::1::--->:::::=::1::--:-:::&;&$O%&%$+&&&&&**&&&-&&&-&&&-&---&:-&----&--&-=:--;==&&=&::::====:-$Xo.o$$:,>,2>;:22>:;1>:>122>:>>:12",
"1:::-:=-&:::::-:::::&-:&-&&=:%$+$%$%+%+&&$&$&&&&&&&%&&&%&-*-&&&+&&&--&:&&&-&%&#=&==&=&=::=&;:&oOoXoo%:>;:2>;=;1:>>>=:>:>:>>>>:>-",
">>::-::=:-=:==:-:::==-&&-&-:=*o$O++Oo+%&%&%&&*&&&&&&%%&&%&&&-&%%&&&&-&-&&=-&&=&&&==:&&::=:==&&o+Xoo+$-:>::-===::>:>::::2>>1:->::",
":>:--=:==:;&=:=--::-&::&&=-=:&Oo$++$o%&$&&*%&&&%&&%%%&**&&&&&&&%&&-:&-:-&&&-&&=&:=&:&:&::&;&:%Xooooo+=>;;::;==11;2::>::>1>:::>::",
"2>:-::==::=#&=:-::-::&&-&-:--&O+O$+$o+&&&&&&&&&&&&+%&&%%&%&&-&&&-&&&&&-&&=&--&&#=:::==&&=&=;-&OoOooO+&>;==:;>=:>21:22:::::>::>:-",
">::::=::==:&&-==::-:-:-=&&-=-&$O++O+o$&$%&&&*&&%&%+%&%*%%&-&*&&&&-:-&&-:=&=&&&&&=:==;==&&#=-&&+o+o+o+-:::=--:::>>:21>::>::1->::>",
"::-:--==:=;;=&=::-:::--:::&&-&O$oOo+X$%+%&&&&&&*&%+%&%+&&&%&&&&%-&%--:&:=&&&&@@-&&&;&&:&&&&:-&ooo$O++==>>:=:-1:>:>>:>>>:1::=::::",
":::>-=:::==&=:::=-:-:::::=-=&&+$Oo++o+++%%+%@%&%%@%+%&%%&+&&+%&%&----&&:-&&&&&&=-=&&&:&-=-&&=&+O++oo&::>=>:-=>1:=>>>1::>::::=:=:",
"&&&-&&&&&&-&&%&&&-&&&%&&&%&+&%$+$o+OO%%+%+%&+++%%+%+$%$%+%%++&&+$+%%&&%%&%&&%&&&&&&%&%&&%&&&%&$o++O+&:=&=&:=::=::=&&&:&-&=&&&-&&",
"oOXoX.XXo.oXOoXOoXoOoooX..o.Xo$+$o+$o X..Xoo .X.   X X XXoXooo .  o o..XXo. .XX.oX.X. oXOoooXX+OO++O$Xo++XXooOoXooXXo+OoXXOOXoOX",
"XX X X..    ..     . .   .  . X+$+$$X .X.X ..         . . ..       ..  . .. ...     .  XX..o.. ++$++X...  ..  X  .X   . .       ",
"XoOXOO.X .  . X oooo..  .  o ooX++$OOoOXoOXXX.    X.   XX+Oo.X   . X. Xoo.XXXoX    .oXOOOXoXo.XO%%$.  X.XX X o......XXoo      XX",
"$%%+%$+$oo+oo+oo+XooooooOo$+oo++O$+%+%&+$%%+o+oooOoooXoo+++$OOooooo+OoO+O$$$Ooo ooXOO+++$+%%+o+++%$OXoooooO+OoO$O$$+O$o$Ooooo+++",
"*%****&**&&&&$Xoo%&&$$&%$**%&%$&****&&*-%*%**$%&$$&&$&%$$%$&%$$%*&&$&$$%$%&$&&o.X&&$%&&$*%$&&&*%&%$$%%%$%+&%&&%%%%&%&&**%$$$$%%&",
"&&&-:&--*-*&%+OoOo&---:-*--*:*:*:--::::::-***::******&--&&-*:*&&-*&&-&-&&&&**ooooo---::::*----&-:&-&&*-:&&-&&*:-*&::****:*-*&***",
":::=::-:::-:O+oooo$>,:>12>:>2:12:2>1>1:>:::2111::---::::>:>:==:&=-:=:=:=:&==$+o oO+>>2::>::>21;:>>>=:&==-:=:>:>2:2::22:>:1:1:--:",
"---:====&=&@Ooo.oo$:;>>>>>;::1>22=:>>:----:11>->=:&%:===::=::=&&-:::==:::-:@oo.o o$&>>>:>>>;2>11:=>;=&==>:;=::;21::=:>1:>1:=-:==",
":&-&&@@&@@&&OXo ooo;>>;2>:=;=:22=&>&=:=-:::=::::-&=--&&=&=&&=&=&&&:===-=&=&&oOo Xo+=:>>,>;:>=;=:=#=#===&=::::>-1>:-=:::-&::=-:-=",
"-&&#@#@@&&@%OOooXoo&=:;;>====>>;=:&=-==::::->;===:&-:==-&&-=-:=&=&&:::&&::&%ooX o+$:2>>>>>>:=::>=;=&:&-:&-:::=:::=:>-:::=-=&-:&&",
"&&====&&&&&&+o. oo+=1;;;>>::;::=:=====:&:::::>===:=&&-&==@&&-==&=====:==#&&+ooO o+$:>>>>:::>:::>:>:=>=:==::>:=:=::::::-::=:-:=&&",
"==&&&=&&&=-&+oX. X+:>>;>>=:>;:::=::&-=:=::::::::::-=&:==&@==&&&=&=;&;=:====%OoOoXo$:;>>;>:=::>:::>->=>=>:>:::;:==>>:>:>:=:&=-==&",
":-=-=&&&#=&&+Ooo Xo&:;>:==:==->:=:=-::=;=:>:=>:==-:;:=-:#=&===&=:==:&&-===&&$ooOoo+:>:>>:>=;;:1:-::&:::>:::::>::>>::::::=::::::&",
"-&-:=&:&=::&++Oooo+::==::::=&>>=:=;:&=&=>:::::&=:::&=::=:=-=:&::===&:::&&&=&++ooXo%:==;;=>::=::>>-==:=:::>2:>:>>:1:::::::=:-:-::",
":===::&:&:&&+ooooo+:2>>:::==:=>:::;>:==&:=:::-&=::=::-:=:::-&=&-::&:=&&:&&&&$OoXoO+-::>:-;==:>->::==;;:>>:::::::-:::>::&&-=-:=&=",
"-&&%&&&&%-&%Ooo.oo+-:-=---&-=&&-=&-&&-&--&&-&-&%&&&&&-&&&&&&&&&&&&&-*&%&&%%&++oX.X%&&-:-=&&&&&&-&=-=&-==:&:&-&:&&&-=--&%&&%&-&%%",
"o X.oo.XXooo$OO.o++XOXXoXXXooXXXXOOOoXOXoOoooo.oXXOXXXO.XoXO..XXooo.X.oX.o.Xo+oo.OOXXXoXoOoXXXoOXoOOXXXooXXOoOO.oOoOXXX.o.oXooXX",
"      X.XX.  ooXoo                   X. .           .      .  .   .        . ++ooX        . .  .  X. .                   ....   ",
".oX. .oXXXX   OOo .X.o       .   . o o.OXoX.   X.Xo.X.X. .oX.      .XXoX . X.ooXo .   X  . . oo...XXX   .X  .   .   .. X.o.oX  .",
"+Ooooo$$++oXXoOo+O+$$+OOoOOoO$o$oo+o+O++++oOo ooOo+OO$O$+ooo++o++o+O$$O$o$oo$Oo+OoOXoooooo++O%++o+$++$OOoOoOoXoooo+ooo+OOO+Xooo+",
"&$$&%%&$&&$&&$&**&%&&***$$$&$&&%&%%%&&%&$&%$o o++&$&$$%$&&*$$$&&$%$&*-**&&&$$$%$$$%$$$%$&$*$&&%&$*$&*&&*$%&&X.X$$%$$%&%$&*%&$&$$",
"*&-::-**&&-**--:**:*:-:&-&:-&&**&-*&&&*&&&*ooo.o$&****&*&&&$&%%%&&&&*&%*&&*&&*&-&***-&**&*&*-&&---%***&*::-Oo.X+&&&*&&--*****&&&",
"12:1:1::1::::211::1::111:<:-::::1::::-::&-oo  Xoo&%&&--&-&&&&&&&&:::&&&&::-:-::*:*--&::::1-1:-::-::::1:::1+o+oo+$:2:>::1::>21::2",
">>:::2>::>:::1>2:::--:::::1:::::--:::&&::&Ooo oOX+&+&*&&&=&@&&&&&&&@&=&-&-=&&&--:==&:=&-:::::::::=::-=::>-+O+ooo+-:>1>>22:::2:>>",
"::=::-::>>::-::1::&&-:-:>-::::=:--:&&%=&&&o+o ooXO@%%%&+%+@@%@%+&&&&&&&&&&&&&&&&&---&-==&-&:::&&&&-&&-&--&++$Oo+%-:1::>-:>:&-1>:",
"-:>:::::::>::::--=-:&:-=::-=:=:::-&&&&&-&%++Xoo+XO++$&&%&%%&%+@@%&&%&&&&*=-&&-&&&--=&=&=-&&-&=&%&=&:-=--:&O$$Ooo+->1:::>:::>>:::",
"::===:::>-:1:1::::--::=:-:::::::-&&&&=---&+oXX++oo%&&&&%*$*&&@&&&%&%&&%&-&&--&&%&---=-&&-&:-=-&&&--:=&:::&%$+$+o$==:>11>:2>:1:::",
"-:::::;=>>-:1:>::>=:&&-:::::--:-&&&&-&&&&%$OoOoooO%&$%&%+&&&&&&&&&&%*&&&@&&&&&&-&&&&&&-&:&:==&=&-&-:-&::=&+++$++$::::::1>:1:>:>>",
"=-&=&-:==:-::=;:::-===::&:-:&----&&-&&-&:&++ooo+X+%%$$&&%&%&*&&@&*&%&&%&%&&&&&&-&-%@&&&=-&-&=-&&:-&:&:==:&+++o+o%&;:12>>:::>:=;=",
"=>====>:=:==:::::>::=--:&=:-&::::-&=&===&&oo.o+Oo$&&%&&$&%$**&&&&%%%%&&@&&&---%---&-&-&&-&-&:-&-&---&=::;-+O$+o+%::>:1>:>=>::>:=",
"&:==&-&=-:=-::=1::-:::-==:-:&:-&::-&:&-&=%Ooooo$o$+%&&&%+*&&&&&&-&*+%%=@-&&&&--&&-&&-&&-&&&-:&@=@&=&%&&==&$oOoo+%:==>:>:==::::=;",
"&=&%&&-&&&&&&:-&:&&&&-&&&&&&&%&-&-%&&%&$%-+oX ooO%$+&++%%+$%%%&+&&&$++&&+$&++$$%%&&&&+&%%%%%&&&&&+%%+&&&&&+oo.+++&-::&&&-:&--:::",
"XXXOXOX..XoXoOXoXO.XXXXOooX.X.XXXOoO.ooooXOooXoo.X  X .X  .X X...oX Xo.oX   oX. Xo .X.oo   X XXX. X .XXo.XOOo o$+XoooXX++OXXOXo+",
"X .. .      . XX .       X  . . XX.      . OOoO+         .    X.XX.  . .                 X.   X    .X...X  o  oO.       X. ..X .",
"o.XXXo o   . .OooX  ..X..oo. X XX.       X..OoO . .      .XOXOXX+X+OXOo.. . .        .  ..    X  oXXXo.. .. ooo  .. X X XoooXo.X"
};
