/* XPM */
static char * wall_xpm[] = {
"64 64 102 2",
"  	c #545454",
". 	c #424242",
"+ 	c #4E4E4E",
"@ 	c #7B7B7B",
"# 	c #585858",
"$ 	c #494949",
"% 	c #3E3E3E",
"& 	c #4A4A4A",
"* 	c #646464",
"= 	c #707070",
"- 	c #5C5C5C",
"; 	c #4D4D4D",
"> 	c #616161",
", 	c #6A6A6A",
"' 	c #5F5F5F",
") 	c #606060",
"! 	c #737373",
"~ 	c #717171",
"{ 	c #676767",
"] 	c #5B5B5B",
"^ 	c #656565",
"/ 	c #555555",
"( 	c #454545",
"_ 	c #444444",
": 	c #484848",
"< 	c #434343",
"[ 	c #343434",
"} 	c #282828",
"| 	c #262626",
"1 	c #464646",
"2 	c #4C4C4C",
"3 	c #414141",
"4 	c #636363",
"5 	c #5E5E5E",
"6 	c #4F4F4F",
"7 	c #5D5D5D",
"8 	c #747474",
"9 	c #727272",
"0 	c #666666",
"a 	c #5A5A5A",
"b 	c #686868",
"c 	c #626262",
"d 	c #535353",
"e 	c #474747",
"f 	c #404040",
"g 	c #333333",
"h 	c #272727",
"i 	c #787878",
"j 	c #6C6C6C",
"k 	c #696969",
"l 	c #7A7A7A",
"m 	c #6F6F6F",
"n 	c #7C7C7C",
"o 	c #767676",
"p 	c #6D6D6D",
"q 	c #515151",
"r 	c #4B4B4B",
"s 	c #363636",
"t 	c #323232",
"u 	c #757575",
"v 	c #6E6E6E",
"w 	c #525252",
"x 	c #3F3F3F",
"y 	c #3B3B3B",
"z 	c #292929",
"A 	c #6B6B6B",
"B 	c #595959",
"C 	c #353535",
"D 	c #2F2F2F",
"E 	c #313131",
"F 	c #383838",
"G 	c #3C3C3C",
"H 	c #575757",
"I 	c #565656",
"J 	c #393939",
"K 	c #2C2C2C",
"L 	c #2E2E2E",
"M 	c #2D2D2D",
"N 	c #2B2B2B",
"O 	c #505050",
"P 	c #373737",
"Q 	c #212121",
"R 	c #3A3A3A",
"S 	c #252525",
"T 	c #303030",
"U 	c #3D3D3D",
"V 	c #202020",
"W 	c #232323",
"X 	c #1D1D1D",
"Y 	c #1C1C1C",
"Z 	c #1F1F1F",
"` 	c #222222",
" .	c #2A2A2A",
"..	c #242424",
"+.	c #1E1E1E",
"@.	c #1A1A1A",
"#.	c #7E7E7E",
"$.	c #777777",
"%.	c #141414",
"&.	c #1B1B1B",
"*.	c #191919",
"=.	c #181818",
"  . + @ # $ % & * = - ; > , ' ) ! ~ { ] ' , ^ / & ( _ : < [ } | _ 1   ^ > 2 3 _ 4 = 5 6 4 , 7 - 8 9 0 a 5 b c d ( e ( . f % g h ",
"4 ' ^ i j , ^ * k l m * 8 n o l = ! p ) 7 > ] + q r : : 3 s t [ # - { ~ m ^ > * k @ ~ ^ 8 @ 8 i 9 u v > 7 > a ; w w + ( x y t z ",
"0 9 9 c 9 o o j ' = v 4 b A 0 k 0 j , ' B B   r r e . % C D E F > , = v A p = m > 9 v 4 { k 0 k b m j > a a   r < e _ G s C t D ",
"' ~ = + k 4 0 > H c * ' ) ) 7 ] B - a   d I d r G % % J D z K E 7 j v > a c ^ ) a * * 7 7 ' 7 - a 7 ] /   I d 2 [ y G C D L M N ",
"B b p w ^ q I ) 1 e + d I - 7 / w ; 1 ( r w O $ P x _ 3 P D K K H , v 5 I 7 5 I $ $ ; q   a 7 I q 2 ( _ r q 6 : y . _ G t K | Q ",
"w ] * 5 ' ; w > 2 < $ 6 2 w I 2 6 ( G G ( r : . P f 1 . R t N S ; > k 5 I ] - H + _ $ + r q I 2 ; < R y _ & : . R f . G s T } Q ",
"; w B ) ; O d H * H - 5 ; O a w e f G % < ( < 3 U . 3 F t D z V _ d 5 B q w / I * H 7 ' + 6 # O ( x y % < ( _ . P R J C g t N W ",
"6 w d ' x I I & I &     % f d q U G % < _ < . _ : e x t M D N W < + H / ; $ + d / & / H f f q ; G G % < 1 ( ( e e _ U C E D h X ",
"w w 6 & 2 O ; 1 d w 6 ; 2 r & $ : 2 % E s y G _ R R G x % C h Y w w 6 & 2 O ; 1 w   d 6 & e : & : 2 % E s y G _ P F % < R z Z V ",
"& e 1 e $ $ 1 _ ( $ + q O r 1 _ U _ y E P J s y [ C P J s D S X r $ e : & & : ( ( & q w 6 $ ( < U _ y E P J s y [ [ J U P z Q ` ",
". R R . < y F y y 3 $ r $ ( < < [ % J g J J g s L E g E K | Q Z ( U U ( 1 % R % U . : r $ 1 . 3 [ % J g J J g s D D E g D S Q ` ",
"< F F < . [ T J y % x G J J % < E G J [ y y [ s L E E M | V Z V ( R R ( _ s g y % U G y R G % f E G J [ y y [ s L K N  .| ` Z Z ",
"U [ C 3 3 [ g % F F P [ T D g F L F [ L s P t C t g E N W Z Z ` % [ s . 3 C g % R P [ t t g [ C L F [ L s P t C t T K h ..W Q Z ",
"z S } T E K T J D T E t T K h ..h E N ..K M z M t E L z W V V Q z S } T E K T J D D D E E L } ..h E N ..K M z M C [ L h S h S V ",
"Q W ......| N T K  .} z N z ` Y V  .S Z | | Q W M  .| W W ` Q V ` ..S S S h K E  .z }  .N z W Z V  .S Z | | Q W D D  .W W h S +.",
"K E T } ..z D D E } Z X ` | ..V Y h ..Z | S X +.h ` +.Z ` W ` Z D [ t  .h K E t M h Q Z Q ..S ..Y h ..Z | S X +.S h W Y +...` @.",
"9 p c B - c ] + r 1 1 r 1 F K  ._ % # b O x 1 1 - ] w & d 4 ^ a 0 * 5 a ' * ] 2 & ( _ : < [ } | % x 6 = $ e . : H - H r q 4 0 a ",
"= ~ j ^ 4 ^ ' I q r : : . P g C ' 5 A u v { k k v 8 ~ k p l #.$., j , ^ ^ 0 '   q r : : 3 s t [ ) ) b $.b { * 0 m u u p v $.@ i ",
"c 0 { c 5 - # w $ ( 3 G g M D C ^ v A k 9 8 v p ^ v m { 4 b , 0 c 0 { c 5 - H w r e . % C D E F , m m ^ ! = = p , v ~ p { 4 * { ",
"/ /   d w q ; $ G % U P M | } M # v ^ I c 0 a a I 7 > 7 ] 5 7 B # H / w q q 6 2 G % % J D z K E 5 j j + A 4 ^ > a a 5 4 ' # I ] ",
"  r ( 1 2 + & 1 F f ( f s L  .z w ~ p a ) > I # : 2 6 d B 5 5 a / 2 _ ( 2 O 6 2 P x _ 3 P D K K I v ! q { - ) 5 e _ $   - ] B ] ",
"+ 3 J % e $ 1 < J . e < R g N S $ ^ v > ] ] a ] O + 2 ; q d q + + 3 F U e r & $ P f 1 . R t N S 2 * m a a   # # r : e r q   w ; ",
". J s % _ < 3 . U . 3 J g T  .` . 6 ) - ; + I   c 5 a / O ; + w < R s U _ < . < U . 3 F t D z V . q - 5 e ; O O 7 ) ] O + /   ; ",
"G J G ( e . 3 1 1 1 % t M T M S : 1 # ] 1 : I 6 ; + ; $ . f & I % y % 1 e f x < : e x t M D N W _ & w ^ 3 w   d r H / _ f 2 d + ",
"U 1 U E C R % & C J % f U [ z Q 6 w O & & ; 2 1 I   q 6 ; r $ : : 2 % E s y G _ F s J f y N Z Y B B d ; ; O ; 1 d w 6 ; 2 r & $ ",
"% 1 % g P J P % [ F y R [ N ` X 1 1 1 1 1 ( _ < _ : + q 6 r e _ U _ y E P J s y s C J U F  .Q Q r : ( 1 : : 1 _ ( $ + q O r 1 _ ",
"R . R t J R [ s D g C t N W Z +.3 y U _ < R F U P % 1 $ : ( _ _ [ % J g J J g s E t C s D ..Q W f F F f . G y x y 3 $ r $ ( < < ",
"[ y t M J G C s K D E M | Q Q W ( y U : ( s [ % J G U y F J % _ E G J [ y y [ s L T E M S +.X V < F F _ ( F s f y % x G J J % < ",
"t F L } g P t [ T E T N ..V Q W % s J _ . [ C 3 R R J C T D g P L F [ L s P t C T E D } Q +.+.Z f s P < . P s . F F P [ T D g F ",
"D s M ..N M } N s g L } ..V Z +.| W } D L z M F g g [ g E K h W h E N ..K M z M t t L h W ....V K h } T T N D F D T E t T K h ..",
"W L  .` | S Z W E N S ` W W V Y X Q W W V ` z D M  .}  .N z ` Y V  .S Z | | Q W M M h Q .. .h Z W ....W ` S  .T K  .} z N z ` Y ",
"%...S Q ..` Y V h V @.X ..h ..Z K g g  ...z D t L S Y Y Q | ..Q Y h ..Z | S X +.| ..Z &.` N h Y T [ t z | K t g E } Z X ` | ..V ",
"$ < a k w _ $ 1 H - H r q 4 0 a 0 * 5 a ' * ] 2 & ( _ : < [ } | & < ] , q 3 e : H - H r q 4 0 a 0 * 5 a ' * ] 2 < e e ( 3 R  .&.",
"> 5 k 9 A 0 0 c m u u p v $.@ i , j , ^ ^ 0 '   q r : : 3 s t [ ) 5 , ! A ^ b b m u u p v $.@ i , j , ^ ^ 0 '   & 2 & ( . f F T ",
"j 9 j k ! o v j , v ~ p { 4 * { c 0 { c 5 - H w r e . % C D E F { m j , ! o ~ ~ , v ~ p { 4 * { c 0 { c 5 - H w ( e _ y C C C t ",
"4 ! { a b A ' ) a a 5 4 ' # I ] # H / w q q 6 2 G % % J D z K E ] = 0 H ^ , ) ) a a 5 4 ' # I ] # H / w q q 6 2 R x % [ N } | ..",
"I p { B > ) H 7 e _ $   - ] B ] / 2 _ ( 2 O 6 2 P x _ 3 P D K K O m A # 5 ) # a e _ $   - ] B ] / 2 _ ( 2 O 6 2 P x . G g K | V ",
"; ' * 5 ] H # ) r : e r q   w ; + 3 F U e r & $ P f 1 . R t N S & 0 v ) ] - ] 5 r : e r q   w ; + 3 F U e r & $ P % < f R C K ..",
"6 O ] 5 O r / ] 7 ) ] O + /   ; < R s U _ < . < U . 3 F t D z V :   4 ' O q a # 7 ) ] O + /   ; < R s U _ < . < U x U P [ t K ..",
"B & I 5 $ < q d r H / _ f 2 d + % y % 1 e f x < : e x t M D N W & : B a ( 1   + r H / _ f 2 d + % y % 1 e f x < & ( y T M M z ` ",
"w w 6 & 2 O ; 1 d w 6 ; 2 r & $ 3 e y T s R R 3 [ G _ . F N W V w d 6 & 2 O + 1 H / w 6 ; r $ : 3 e y T s R R 3 C C y f F } V ` ",
"& e 1 e $ $ 1 _ ( $ + q O r 1 _ f e G E s P C R E F x U [  ...` $ e ( 1 $ : 1 < . e ; O O 2 : 1 f e G E s P C R s C J G C h V Q ",
". R R . < y F y y 3 $ r $ ( < < J 3 J E s P g s M t C [ M | W W _ G G _ ( U J U P % 1 $ : ( _ _ J 3 J E s P g s C g [ [ M W +.Z ",
"< F F < . [ T J y % x G J J % < M F [ D P J [ P K L L N S Q V V e G U : e J C % G x x G P P y f M F [ D P J [ P [ E L N | V +.+.",
"U [ C 3 3 [ g % F F P [ T D g F } g E M C s T g E T M } W V V V f P J ( _ P s 3 y y J C T D t s } g E M C s T g [ t M } ....` Q ",
"z S } T E K T J D T E t T K h ..h t L } L M | } [ t L z S W ` ` } ..h T T K D F L D E t t D N } h t L } L M | } [ t M | S z } ..",
"Q W ......| N T K  .} z N z ` Y Q K h V | S Z V L K } S W ` ` Q V ` W W W S  .D  .} h z K N S Z Q K h V | S Z V K M h Q ` } } ` ",
"K E T } ..z D D E } Z X ` | ..V *...Z @.Q ` X V S W V Z Z Z +.+.D [ t  .h K E t t z Z Y Q W Q Y *...Z @.Q ` X V W S V @.Y W W Y ",
"p p * B 7 ^ 7 r & ( _ : < [ } | f 3 7 , w ( $ < # B d ; I ^ * # * ^ ' # 7 0 5 2 1 1 e 1 . R D h ( % H { 6 x e : I - # +   ^ 0 a ",
"p 9 v * * k c / q r : : 3 s t [ ] ' j 9 k ^ ^ 5 m u 8 j m @ n 8 j ~ v * c ^ 7 6 ; 2 & ( f R s [ 4 > p u j ^ { { p u u m m $.l u ",
"c k k > 7 ) 7   r e . % C D E F 0 ~ v { = u = j k 9 9 b 4 { b 4 * A A > ] - I 2 : e < y g T g s { m j b ~ ! v p , v ~ p 0 > ) c ",
"H B H q q / d ; G % % J D z K E a = 0 I * j * ^ B ) > - B ] ] H / # I O O d q r y % % P M } N D / A c   c b 5 ' - ] ' 4 5 / d H ",
"/ 6 e ( r w O & P x _ 3 P D K K O p b / - ' B ' e & 2 6 / - - B d ; ( < & w q r P U < f s M  . .6 v A B ) 4 a 7 2 : r / ] a # B ",
"+ _ G U e ; r ( P f 1 . R t N S 2 4 k 7 I   / ] ; r $ r 6 q O ; O 1 G G ( r $ _ F % _ < y E z | 2 { v ) a a B ] O 2 $ r q   w + ",
"x R F U _ 1 _ 3 U . 3 F t D z V & q ' 5 + & d I > ' ] H w ; ; 6 ( % R G 3 < f % % % % y C L } S 1 w > - 2 2   w ' > ] 6 ;   / + ",
"P J % ( : ( < < : e x t M D N W 2 ( I 5 $ 1 /   O w d 6 e . : w G G x _ ( < 3 . $ < G C t D K  .: 1 # a ( : I O r I w 3 U r d 6 ",
"( _ % s C y x x C R x x F M ` Y + d I d d d ; _ + d / O e . 1 r ( _ % s C y x x [ G _ . F N W V O     q w w & x   H H w & ( e r ",
"% x G s C J y F g F U G [ N W V : 1 _ _ _ _ _ ( : ( ( r q O 1 G % x G s C J y F T P U y t } ` V $ ( < _ 1 : : e < & w d ; e ( ( ",
"F G y P s F F [ L [ F C K ..` ` < G y 3 f J J f % y G _ 2 ; ( G F G y P s F F [ L t s g N ..Q V _ y R 3 < U G . F x e & e _ < < ",
"P R J C [ P F [ M E [ L ..+.+.` x F % r : P t R P G f U P P % 1 P R J C [ P F [ E t t L h ` V Q . J G $ e s D C R G G y J R % . ",
"g C t K K E g t E g t K W +.Z W P E P ( < [ t U P y G P L K t R g C t K K E g t C [ E N | ` Q Q J E s < . g D F y R P [ E E [ s ",
" .N } ` ` h N z g t D  .S ` W ..N | h M M N [ . P E L D g E h +. .N } ` ` h N z g E M } S ` ` ` K S | M T D P _ E g [ g E K h S ",
"V W ` +.+.W ..Q M z S W ....W ` W ..W V Z S T R M } ..h N  .Q =.V W ` +.+.W ..Q  .} S W ` ` ` ` ..W ` V ` z [ U z  .N N  .h W V ",
"Y Q W Q Q W Q X W +.@.&.V ` V X Q z N S Q S N M ` S S V =.=.Z } Y Q W Q Q W Q X ` V +.+.Z Q Q Q ..z  .W V ..} } } S V +.Z ` S | "};
