/* XPM */
static char *idle[] = {
/* columns rows colors chars-per-pixel */
"64 64 18 1 ",
"  c magenta",
". c #23437F",
"X c #335FB3",
"o c #3B6BCB",
"O c #132B4B",
"+ c #5787E7",
"@ c #6B97EB",
"# c #2B5397",
"$ c #97B7EF",
"% c #4377E7",
"& c #3B003B",
"* c #AF4F00",
"= c #FF7F23",
"- c #5F1700",
"; c #FFAF6F",
": c #FFDBBB",
"> c #FFFFFE",
", c #6F1F73",
/* pixels */
"                                                                ",
"                                                                ",
"                                                                ",
"                                                                ",
"                                                                ",
"                                                                ",
"                                                                ",
"                                                                ",
"                            ..X....X..                          ",
"                           .ooo....ooo.                         ",
"                        ..XooooX..XooooX..                      ",
"                       .XXoooooXXXXoooooXX.                     ",
"                     ..XXooooXXXXXXXXooooXX..                   ",
"                    ..XXoooooXXX..XXXoooooXX..                  ",
"                 OOO..XXooooooXX..XXooooooXX..OOO               ",
"                .OO...XXooooooXX..XXooooooXX...OO.              ",
"              ...OO...XXoooooX......XoooooXX...OO...            ",
"             .....OO..XXXooo...+@@+...oooXXX..OO.....           ",
"          ...X#...OO...Xoo..+++@$$@+++..ooX...OO...#X...        ",
"        .XooooX..O.OO..XXX..+%%+@@+%%+..XXX..OO.O..XooooX.      ",
"        oo++ooX......O.XX..+o%%%++%%%o+..XX.O......Xoo++oo      ",
"       .X++++oX#........X..+oXXXooXXXo+..X........#Xo++++X.     ",
"       Xoo+$+oX#...XXX.....%%OOOXXOOO%%.....XXX...#Xo+$+ooX     ",
"       Xo+++ooX...XX%oo.....%.OOXXOO.%.....oo%XX...Xoo+++oX     ",
"       .oooooX#..XX%&&o........OOOO........o&&%XX..#Xooooo.     ",
"      ..X.XXX#.O.XX&&&oXXXX............XXXXo&&&XX.O.#XXX.X..    ",
"     .XXXX....OO.X%&&&&oooXXXXXXXXXXXXXXooo&&&&%X.OO....XXXX.   ",
"     .Xoo+XXOOOO.X%&&&**=*ooooXXXXXXoooo*=**&&&%X.OOOOXX+ooX.   ",
"     .oo+$+X.OOO.X%&&*-;::=*ooo%%%%ooo*=::;-*&&%X.OOO.X+$+oo.   ",
"     .oo++X#.OOO..X&&*--:>::*===**===*::>:--*&&X..OOO.#X++oo.   ",
"    .#oXXXX#.OOO..X&&&*=*>>>=:>:**:>:=>>>*=*&&&X..OOO.#XXXXo#.  ",
"    .XXXXX#..OOO..XX&&,;-***-**----**-***-;&&&XX..OOO..#XXXXX.  ",
"    .XXX...OO OOO..XXXXXXXXXX%%%%%%%%XXXXXXXXXX..OOO OO...XXX.  ",
"    ..XoX#... OOO........XX%%%%%%%%%%%%XX........OOO ...#XoX..  ",
"     .XoXX...  OOOOO........XXXXXXXXXX......OOOOOOO  ...XXoX.   ",
"     .XooX#..  OOOOOOOO....................OOOOOOOO  ..#XooX.   ",
"      #XooX.O   OOOOOOOOOOO............OOOOOOOOOOO   O.XooX#    ",
"       #ooX#.O  OO.OOOOOOOOOOOOOOOOOOOOOOOOOOO..OO  O.#Xoo#     ",
"       .oooX#.   O...OOOOOOOOOOOOOOOOOOOOOOOO...O   .#Xooo.     ",
"        XooXX.   OO......OOOOOOOOOOOOOOOO.......O   .XXooX      ",
"       .XooooX   O.XoXoooX....OOOOOO....XoooXoX.O   XooooX.     ",
"       XXooooXXX  .XX.XXXX..OOOOOOOOOO..XXXX.XX.  XXXooooXX     ",
"       Xooooo..X  ..........OOOOOOOOOO..........  X..oooooX     ",
"       XXoooo###  ...XXX..OOOOOO  OOOOOO..XXX...  ###ooooXX     ",
"       XX.XXXX.   .X.%%X.OOOOOO    OOOOOO.X%%.X.   .XXXX.XX     ",
"        XXXXXX.   .XX%%..O.OOOO    OOOO.O..%%XX.   .XXXXXX      ",
"        ...XX#..  .X%%X...OOOO      OOOO...X%%X.  ..#XX...      ",
"         ..#X##.  .XXXX..OOOO        OOOO..XXXX.  .##X#..       ",
"          ##  ##  O.XXX..OOO          OOO..XXX.O  ##  ##        ",
"                   .....OOO            OOO.....                 ",
"                   OOO..OOOO          OOOO..OOO                 ",
"                  XX.OOOOOOOO        OOOOOOOO.XX                ",
"                  %%.....OOOO        OOOO.....%%                ",
"                 XX%..X...OO          OO...X..%XX               ",
"                XXX..XX..XOO          OOX..XX..XXX              ",
"               X%%..XXX..X...        ...X..XXX..%%X             ",
"               X%X.OXX...XX..        ..XX...XXO.X%X             ",
"               ...XXX....X%XX.      .XX%X....XXX...             ",
"                OOX%%.OOX%%XX.      .XX%%XOO.%%XOO              ",
"                  X%%OOOX%%..        ..%%XOOO%%X                ",
"                   %%OOXX%..          ..%XXOO%%                 ",
"                                                                ",
"                                                                ",
"                                                                "
};
