/* XPM */
static char *walk1[] = {
/* columns rows colors chars-per-pixel */
"64 64 21 1 ",
"  c magenta",
". c #23437F",
"X c #335FB3",
"o c #3B6BCB",
"O c #132B4B",
"+ c #5787E7",
"@ c #6B97EB",
"# c #7FA7EF",
"$ c #97B7EF",
"% c #4377E7",
"& c #2B5397",
"* c #3B003B",
"= c #AF4F00",
"- c #FF7F23",
"; c #5F1700",
": c #FFAF6F",
"> c #FFDBBB",
", c #FFFFFE",
"< c #6F1F73",
"1 c #8B378F",
"2 c #A357AB",
/* pixels */
"                                                                ",
"                                                                ",
"                                                                ",
"                                                                ",
"                                                                ",
"                                                                ",
"                                                                ",
"                                                                ",
"                           .X....X..                            ",
"                         .ooo....ooo.                           ",
"                       ..oXooX..XooooX..                        ",
"                      .oXXoooXXXXoooooXX.                       ",
"                     ..XXoooXXXXXXXooooXX..                     ",
"                   ...XXooooXX..XXXoooooXX..                    ",
"                 OOO..XXooooXX..XXooooooXX..OOO                 ",
"                .OO...XXooooXX..XXooooooXX...OO.                ",
"               ..OO...XXooooX.....XoooooXX...OO.                ",
"             .....OO..XXXo...+@@+...oooXXX..OO....              ",
"            .....OOO...Xo..o+@#$@+++..ooX...OO.....             ",
"         .OOO...OO.OO..XX.ooo+@@+%%+..XXX..OO.O..&X...          ",
"       .XO..O..OO....O.X..X+oo++%%%o+..XX.O......XooooX.        ",
"      .XXXX..OOO..........o+XXooXXXo+..X.........Xoo++oo        ",
"     .XXX..........XX.....%OOOXXOOO%%.....XXX...&Xo++++X.       ",
"     XXXXX..O....XX%oo......OOXXOO.%.....oo%XX..&Xo+$+ooX       ",
"     XXXX...O...XX%**o.......OOOO........o**%XX..Xoo+++oX       ",
"     XXX..OOOO..XX***oXXXX...........XXXXo***XX..&Xooooo.       ",
"     .X....OOO..X%****oooXXXXXXXXXXXXXooo****%X.O.&XXX.X..      ",
"     O..OOOOOO..X****=-=ooooXXXXXXoooo=-==***%X.OO....XXXX.     ",
"     O..OOOOOO..XX*;;:>>-=ooo%%%%ooo=->>:;=**%X.OOOOXX+ooX.     ",
"     OOOOOOOOOO..XX*;=>,>>=---==---=>>,>;;=**X..OOO.X+$+oo.     ",
"      .OOOOOOOO...XX=;;=,,->,>==>,>-,,,=-=***X..OOO.&X++oo.     ",
"     ..OO.OO OO....XX:-==;;===;;;==;===;:<<*XX..OOO.&XXXXo&.    ",
"    ...OO...  OO....X:->>--,>-===---->>-:<<XX..OOOO..&XXXXX.    ",
"    ...OOO... OO.....X<=-=->>-==-->>=-=<<<XX...OOO OO...XXX.    ",
"    .OOOOO...  OO.....X<<<---=12=---11<<<XX...OOO. ...&XoX..    ",
"    OOOOOO...   OOOOO..XX<<11222222111<<XX....OOO  ...XXoX.     ",
"     OOOOOO..    OOOOO..XXXX%%$$$%%XXXXXX....OOOO  ..&XooX.     ",
"     O...OOO    O.O..OO..XX%%%%%%%%%%XX......OOO   O.XooX&      ",
"      ....OOO   ...XoXOO....XXXXXXXX......OOOOO   O.&Xoo&       ",
"      O...OOO   ..Xo%X.OO................OOOOOO   .&Xooo.       ",
"       O...OO   ..X%%XX.OOO..........OOOOOO..OO   .XXooX        ",
"       O..OOO   ..X%%%oXXX.OOOOOOOOOOOOOO....OO   XooooX.       ",
"        ....OO  O.Xooo%oXXX..OOOOOOOOOO..XXXX.O XXXooooXX       ",
"        O...OOO  .XX.XXX...OOOOOOOOOOOO.XXXXX.O X..oooooX       ",
"        OOOOOO   ..........OOOOO    OO.XXXXX..O &&&ooooXX       ",
"        OOOOO    ...XXX..OOOOOO      O....XX..O  .XXXX.XX       ",
"         OOOOO   .X.%%X.O.OOOO        OO.....OO  .XXXXXX        ",
"          O  O   .XX%%....OOOO        OO....OOO ..&XX...        ",
"                 .X%%X...OOOO          O..OOOO  .&&X&..         ",
"                 .XXXX..OOOO          OOOO...O  &&  &&          ",
"                 O.XXX..OOO          OOO..XXX.                  ",
"                  .....OOO           OOO.XXX.O                  ",
"                  .....OOOO          OOOO....O                  ",
"                  OOO..OOOO          OOOOOOOOO                  ",
"                 XX.OOOOOOOO         OOOOO.XXO                  ",
"                 %%.....OOOO        OO..OO.X++O                 ",
"                XX%..X...OO        O..O.XXOXXX.O                ",
"               XXX..XX..XOO        O..OXX+X.....O               ",
"              X%%..XXX..X...       O..OX+++XXOOO                ",
"              X%X.OXX...XX..       OO.O.X+X.XOO                 ",
"              ...XXX....X%XX.       OOO.....O                   ",
"               OOX%%.OOX%%XX.         OOOOOO                    ",
"                 X%%OOOX%%..                                    ",
"                  %%OOXX%..                                     "
};
