/* XPM */
static char *walk0[] = {
/* columns rows colors chars-per-pixel */
"64 64 21 1 ",
"  c magenta",
". c #23437F",
"X c #335FB3",
"o c #3B6BCB",
"O c #132B4B",
"+ c #5787E7",
"@ c #6B97EB",
"# c #97B7EF",
"$ c #7FA7EF",
"% c #2B5397",
"& c #4377E7",
"* c #3B003B",
"= c #AF4F00",
"- c #FF7F23",
"; c #5F1700",
": c #FFAF6F",
"> c #FFDBBB",
", c #FFFFFE",
"< c #6F1F73",
"1 c #8B378F",
"2 c #A357AB",
/* pixels */
"                                                                ",
"                                                                ",
"                                                                ",
"                                                                ",
"                                                                ",
"                                                                ",
"                                                                ",
"                                                                ",
"                            ..X....X.                           ",
"                           .ooo....ooo.                         ",
"                        ..XooooX..XooXo..                       ",
"                       .XXoooooXXXXoooXXo.                      ",
"                     ..XXooooXXXXXXXoooXX..                     ",
"                    ..XXoooooXXX..XXooooXX...                   ",
"                 OOO..XXooooooXX..XXooooXX..OOO                 ",
"                .OO...XXooooooXX..XXooooXX...OO.                ",
"                .OO...XXoooooX.....XooooXX...OO..               ",
"              ....OO..XXXooo...+@@+...oXXX..OO.....             ",
"             .....OO...Xoo..+++@#$@+o..oX...OOO.....            ",
"          ...X%..O.OO..XXX..+&&+@@+ooo.XX..OO.OO...OOO.         ",
"        .XooooX......O.XX..+o&&&++oo+X..X.O....OO..O..OX.       ",
"        oo++ooX.........X..+oXXXooXX+o..........OOO..XXXX.      ",
"       .X++++oX%...XXX.....&&OOOXXOOO&.....XX..........XXX.     ",
"       Xoo+#+oX%..XX&oo.....&.OOXXOO......oo&XX....O..XXXXX     ",
"       Xo+++ooX..XX&**o........OOOO.......o**&XX...O...XXXX     ",
"       .oooooX%..XX***oXXXX...........XXXXo***XX..OOOO..XXX     ",
"      ..X.XXX%.O.X&****oooXXXXXXXXXXXXXooo****&X..OOO....X.     ",
"     .XXXX....OO.X&***==-=ooooXXXXXXoooo=-=****X..OOOOOO..O     ",
"     .Xoo+XXOOOO.X&**=;:>>-=ooo&&&&ooo=->>:;;*XX..OOOOOO..O     ",
"     .oo+#+X.OOO..X**=;;>,>>=---==---=>>,>=;*XX..OOOOOOOOOO     ",
"     .oo++X%.OOO..X***=-=,,,->,>==>,>-,,=;;=XX...OOOOOOOO.      ",
"    .%oXXXX%.OOO..XX*<<:;===;==;;;===;;==-:XX....OO OO.OO..     ",
"    .XXXXX%..OOOO..XX<<:->>----===->,-->>-:X....OO  ...OO...    ",
"    .XXX...OO OOO...XX<<<=-=>>--==->>-=-=<X.....OO ...OOO...    ",
"    ..XoX%... .OOO...XX<<<11---=21=---<<<X.....OO  ...OOOOO.    ",
"     .XoXX...  OOO....XX<<11122222211<<XX..OOOOO   ...OOOOOO    ",
"     .XooX%..  OOOO....XXXXXX&&###&&XXXX..OOOOO    ..OOOOOO     ",
"      %XooX.O   OOO......XX&&&&&&&&&&XX..OO..O.O    OOO...O     ",
"       %ooX%.O   OOOOO......XXXXXXXX....OOXoX...   OOO....      ",
"       .oooX%.   OOOOOO................OO.X&oX..   OOO...O      ",
"        XooXX.   OO..OOOOOO..........OOO.XX&&X..   OO...O       ",
"       .XooooX   OO....OOOOOOOOOOOOOO.XXXo&&&X..   OOO..O       ",
"       XXooooXXX O.XXXX..OOOOOOOOOO..XXXo&oooX.O  OO....        ",
"       Xooooo..X O.XXXXX.OOOOOOOOOOOO...XXX.XX.  OOO...O        ",
"       XXoooo%%% O..XXXXX.OO    OOOOO..........   OOOOOO        ",
"       XX.XXXX.  O..XX....O      OOOOOO..XXX...    OOOOO        ",
"        XXXXXX.  OO.....OO        OOOO.O.X&&.X.   OOOOO         ",
"        ...XX%.. OOO....OO        OOOO....&&XX.   O  O          ",
"         ..%X%%.  OOOO..O          OOOO...X&&X.                 ",
"          %%  %%  O...OOOO          OOOO..XXXX.                 ",
"                  .XXX..OOO          OOO..XXX.O                 ",
"                  O.XXX.OOO           OOO.....                  ",
"                  O....OOOO          OOOO.....                  ",
"                  OOOOOOOOO          OOOO..OOO                  ",
"                  OXX.OOOOO         OOOOOOOO.XX                 ",
"                 O++X.OO..OO        OOOO.....&&                 ",
"                O.XXXOXX.O..O        OO...X..&XX                ",
"               O.....X+XXO..O        OOX..XX..XXX               ",
"                OOOXX+++XO..O       ...X..XXX..&&X              ",
"                 OOX.X+X.O.OO       ..XX...XXO.X&X              ",
"                   O.....OOO       .XX&X....XXX...              ",
"                    OOOOOO         .XX&&XOO.&&XOO               ",
"                                    ..&&XOOO&&X                 ",
"                                     ..&XXOO&&                  "
};
